<?xml version="1.0" encoding="UTF-8" standalone="no"?>
<!-- Created with Inkscape (http://www.inkscape.org/) -->

<svg
   xmlns:dc="http://purl.org/dc/elements/1.1/"
   xmlns:cc="http://creativecommons.org/ns#"
   xmlns:rdf="http://www.w3.org/1999/02/22-rdf-syntax-ns#"
   xmlns:svg="http://www.w3.org/2000/svg"
   xmlns="http://www.w3.org/2000/svg"
   xmlns:sodipodi="http://sodipodi.sourceforge.net/DTD/sodipodi-0.dtd"
   xmlns:inkscape="http://www.inkscape.org/namespaces/inkscape"
   width="1066.9183"
   height="74.535858"
   viewBox="0 0 282.28881 19.720946"
   version="1.1"
   id="svg8"
   inkscape:version="0.92.4 (5da689c313, 2019-01-14)"
   sodipodi:docname="pagebreak-websites.svg">
  <defs
     id="defs2">
    <clipPath
       clipPathUnits="userSpaceOnUse"
       id="clipPath921">
      <rect
         style="opacity:1;fill:none;fill-opacity:1;stroke-width:0;stroke-miterlimit:4;stroke-dasharray:none"
         id="rect923"
         width="282.28882"
         height="24.229492"
         x="-5.238483"
         y="231.89313" />
    </clipPath>
    <clipPath
       clipPathUnits="userSpaceOnUse"
       id="clipPath925">
      <rect
         style="opacity:1;fill:none;fill-opacity:1;stroke-width:0;stroke-miterlimit:4;stroke-dasharray:none"
         id="rect927"
         width="282.28882"
         height="24.229492"
         x="-5.238483"
         y="231.89313" />
    </clipPath>
  </defs>
  <sodipodi:namedview
     id="base"
     pagecolor="#ffffff"
     bordercolor="#666666"
     borderopacity="1.0"
     inkscape:pageopacity="0.0"
     inkscape:pageshadow="2"
     inkscape:zoom="0.7071068"
     inkscape:cx="320.93759"
     inkscape:cy="189.80507"
     inkscape:document-units="px"
     inkscape:current-layer="layer1"
     showgrid="false"
     showborder="true"
     units="px"
     inkscape:object-paths="true"
     inkscape:snap-intersection-paths="true"
     inkscape:snap-smooth-nodes="true"
     inkscape:snap-object-midpoints="true"
     inkscape:window-width="1920"
     inkscape:window-height="1057"
     inkscape:window-x="-8"
     inkscape:window-y="-8"
     inkscape:window-maximized="1"
     fit-margin-top="0"
     fit-margin-left="0"
     fit-margin-right="0"
     fit-margin-bottom="0" />
  <metadata
     id="metadata5">
    <rdf:RDF>
      <cc:Work
         rdf:about="">
        <dc:format>image/svg+xml</dc:format>
        <dc:type
           rdf:resource="http://purl.org/dc/dcmitype/StillImage" />
        <dc:title></dc:title>
      </cc:Work>
    </rdf:RDF>
  </metadata>
  <g
     inkscape:label="Layer 1"
     inkscape:groupmode="layer"
     id="layer1"
     transform="translate(5.0521,-250.71423)">
    <g
       id="g911"
       clip-path="url(#clipPath925)"
       transform="translate(0.18638299,14.312553)">
      <path
         inkscape:connector-curvature="0"
         id="path70"
         d="m -5.4255712,241.80882 c 0,0 53.5073582,-8.2319 100.6536992,3.3676 47.146342,11.5995 101.963322,3.18051 101.963322,3.18051 0,0 56.87495,-10.28988 73.52585,2.24506 16.65089,12.53494 8.98025,17.39925 8.98025,17.39925 l 1.87089,32.17924 -106.07928,16.27672 -190.269164,-13.47038 z"
         style="opacity:0.52399998;fill:#f4f7f6;fill-opacity:1;stroke:#000000;stroke-width:0;stroke-linecap:butt;stroke-linejoin:miter;stroke-miterlimit:4;stroke-dasharray:none;stroke-opacity:1" />
      <path
         style="opacity:0.77399998;fill:#f4f7f6;fill-opacity:1;stroke:#000000;stroke-width:0;stroke-linecap:butt;stroke-linejoin:miter;stroke-miterlimit:4;stroke-dasharray:none;stroke-opacity:1"
         d="m 300.42713,239.23491 c 0,0 -66.7402,-8.2319 -125.54624,3.3676 -58.80606,11.5995 -127.179747,3.18051 -127.179747,3.18051 0,0 -70.94062,-10.28988 -91.70944,2.24506 -20.7688,12.53494 -11.20114,17.39925 -11.20114,17.39925 l -2.33358,32.17924 132.31362,16.27672 L 312.095,300.41291 Z"
         id="path880"
         inkscape:connector-curvature="0" />
      <path
         id="path897"
         transform="matrix(0.26458333,0,0,0.26458333,0,217.62498)"
         d="m -20.505859,91.408203 -35.28711,230.775387 8.583985,1.05664 464.818364,32.90625 569.77734,-32.33984 76.80858,-11.78516 -7.0703,-121.62304 c 0,0 28.9911,-18.38557 -33.9414,-65.76172 -62.93254,-47.376152 -277.89258,-8.48438 -277.89258,-8.48438 0,0 -158.6854,24.37046 -317.7461,1.06836 -137.74715,2.67961 -247.25781,-10.79687 -247.25781,-10.79687 0,0 -103.553478,-15.015877 -200.792969,-15.015627 z"
         style="opacity:1;fill:#f4f7f6;fill-opacity:1;stroke:#000000;stroke-width:0;stroke-linecap:butt;stroke-linejoin:miter;stroke-miterlimit:4;stroke-dasharray:none;stroke-opacity:1"
         inkscape:connector-curvature="0" />
    </g>
    <rect
       style="opacity:1;fill:none;fill-opacity:1;stroke-width:0;stroke-miterlimit:4;stroke-dasharray:none"
       id="rect915"
       width="282.28882"
       height="24.229481"
       x="-5.238483"
       y="231.89313"
       clip-path="url(#clipPath921)" />
  </g>
</svg>
